<svg xmlns="http://www.w3.org/2000/svg" xmlns:xlink="http://www.w3.org/1999/xlink" width="160" zoomAndPan="magnify" viewBox="0 0 120 44.999999" height="60" preserveAspectRatio="xMidYMid meet" version="1.0"><metadata/><defs><g/><clipPath id="48e12a1021"><rect x="0" width="63" y="0" height="39"/></clipPath></defs><path fill="#3d7fff" d="M 35.273438 17.300781 C 35.273438 17.765625 35.085938 18.226562 34.761719 18.597656 C 34.402344 18.957031 33.96875 19.113281 33.464844 19.0625 C 33.050781 19.074219 32.695312 18.9375 32.402344 18.648438 C 32.113281 18.332031 31.972656 17.964844 31.984375 17.535156 C 31.984375 17.070312 32.171875 16.613281 32.496094 16.285156 C 32.84375 15.949219 33.257812 15.777344 33.746094 15.777344 C 34.160156 15.734375 34.53125 15.914062 34.855469 16.195312 C 35.132812 16.46875 35.273438 16.886719 35.273438 17.300781 Z M 32.957031 29.382812 L 30.085938 29.382812 L 31.9375 19.988281 L 34.804688 19.988281 Z M 24.394531 28.921875 L 25.410156 23.597656 L 20.734375 23.597656 L 19.714844 28.921875 L 16.9375 28.921875 L 19.394531 16.234375 L 22.125 16.234375 L 21.199219 21.1875 L 25.921875 21.1875 L 26.894531 16.234375 L 29.671875 16.234375 L 27.21875 28.921875 L 24.390625 28.921875 Z M 37.957031 10.867188 L 37.867188 10.777344 C 36.308594 9.214844 34.507812 8.015625 32.46875 7.171875 C 30.433594 6.328125 28.3125 5.910156 26.105469 5.914062 C 23.894531 5.910156 21.765625 6.328125 19.71875 7.171875 C 17.675781 8.015625 15.867188 9.214844 14.300781 10.777344 C 12.746094 12.347656 11.542969 14.152344 10.703125 16.199219 C 9.859375 18.242188 9.4375 20.371094 9.4375 22.582031 C 9.429688 24.792969 9.847656 26.921875 10.691406 28.96875 C 11.53125 31.015625 12.738281 32.820312 14.300781 34.386719 C 15.871094 35.941406 17.679688 37.140625 19.722656 37.984375 C 21.765625 38.824219 23.894531 39.246094 26.105469 39.246094 L 38.558594 39.246094 C 38.730469 39.246094 38.894531 39.214844 39.054688 39.148438 C 39.214844 39.082031 39.355469 38.988281 39.476562 38.867188 C 39.597656 38.746094 39.691406 38.605469 39.757812 38.445312 C 39.824219 38.289062 39.855469 38.121094 39.855469 37.949219 L 39.855469 32.070312 C 40.769531 30.738281 41.480469 29.300781 41.984375 27.765625 C 42.511719 26.078125 42.773438 24.347656 42.773438 22.578125 C 42.773438 17.996094 40.921875 13.875 37.957031 10.871094 Z M 37.957031 10.867188 " fill-opacity="1" fill-rule="nonzero"/><g transform="matrix(1, 0, 0, 1, 46, 3)"><g clip-path="url(#48e12a1021)"><g fill="#3d7fff" fill-opacity="1"><g transform="translate(0.583813, 29.369392)"><g><path d="M 7.859375 -16.515625 C 8.609375 -16.679688 9.414062 -16.765625 10.28125 -16.765625 C 10.507812 -16.765625 10.960938 -16.75 11.640625 -16.71875 C 12.328125 -16.695312 13.191406 -16.539062 14.234375 -16.25 L 15.125 -16.03125 L 15.046875 -15.5 C 14.972656 -14.976562 14.835938 -14.285156 14.640625 -13.421875 C 14.523438 -12.890625 14.429688 -12.503906 14.359375 -12.265625 C 14.296875 -12.035156 14.234375 -11.921875 14.171875 -11.921875 C 13.992188 -11.941406 13.546875 -12.054688 12.828125 -12.265625 C 11.984375 -12.503906 11.160156 -12.625 10.359375 -12.625 C 10.191406 -12.625 9.816406 -12.597656 9.234375 -12.546875 C 8.660156 -12.503906 8.101562 -12.296875 7.5625 -11.921875 C 6.070312 -10.898438 5.328125 -9.472656 5.328125 -7.640625 C 5.328125 -7.515625 5.328125 -7.378906 5.328125 -7.234375 C 5.453125 -5.535156 6.0625 -4.300781 7.15625 -3.53125 C 7.945312 -3.007812 8.96875 -2.75 10.21875 -2.75 C 11.332031 -2.75 12.460938 -3.007812 13.609375 -3.53125 C 14.171875 -3.738281 14.492188 -3.84375 14.578125 -3.84375 C 14.617188 -3.84375 14.640625 -3.84375 14.640625 -3.84375 C 14.722656 -3.738281 14.90625 -3.117188 15.1875 -1.984375 C 15.46875 -0.859375 15.609375 -0.195312 15.609375 0 C 15.609375 0.0507812 15.609375 0.078125 15.609375 0.078125 C 15.535156 0.148438 15.085938 0.300781 14.265625 0.53125 C 13.453125 0.769531 12.832031 0.929688 12.40625 1.015625 C 11.914062 1.109375 10.988281 1.15625 9.625 1.15625 C 8.226562 1.132812 7.234375 1.035156 6.640625 0.859375 C 5.222656 0.503906 4.082031 -0.0664062 3.21875 -0.859375 C 2.363281 -1.648438 1.703125 -2.726562 1.234375 -4.09375 C 1.054688 -4.59375 0.941406 -4.992188 0.890625 -5.296875 C 0.835938 -5.609375 0.800781 -6.148438 0.78125 -6.921875 C 0.757812 -7.203125 0.75 -7.476562 0.75 -7.75 C 0.75 -8.695312 0.84375 -9.582031 1.03125 -10.40625 C 1.21875 -11.238281 1.570312 -12.054688 2.09375 -12.859375 C 2.707031 -13.796875 3.503906 -14.578125 4.484375 -15.203125 C 5.472656 -15.828125 6.597656 -16.265625 7.859375 -16.515625 Z M 7.859375 -16.515625 "/></g></g></g><g fill="#3d7fff" fill-opacity="1"><g transform="translate(17.073153, 29.369392)"><g><path d="M 3.234375 -12.296875 C 3.890625 -12.546875 4.28125 -12.671875 4.40625 -12.671875 C 4.550781 -12.671875 4.757812 -12.300781 5.03125 -11.5625 C 5.625 -10.144531 6.1875 -8.828125 6.71875 -7.609375 C 7.257812 -6.390625 7.566406 -5.78125 7.640625 -5.78125 C 7.710938 -5.78125 7.875 -6.039062 8.125 -6.5625 C 8.945312 -8.394531 9.644531 -10.03125 10.21875 -11.46875 C 10.582031 -12.269531 10.804688 -12.671875 10.890625 -12.671875 C 10.960938 -12.671875 11.65625 -12.445312 12.96875 -12 C 14.289062 -11.550781 14.984375 -11.300781 15.046875 -11.25 C 15.046875 -11.25 15.046875 -11.238281 15.046875 -11.21875 C 15.046875 -11.039062 14.46875 -9.832031 13.3125 -7.59375 C 12.6875 -6.5 12.3125 -5.796875 12.1875 -5.484375 C 10.5 -2.304688 9.097656 0.242188 7.984375 2.171875 C 7.378906 3.273438 6.988281 3.992188 6.8125 4.328125 C 6.269531 5.296875 5.988281 5.789062 5.96875 5.8125 C 5.894531 5.8125 5.734375 5.75 5.484375 5.625 C 5.023438 5.375 4.488281 5.078125 3.875 4.734375 C 3.125 4.359375 2.628906 4.082031 2.390625 3.90625 L 2.078125 3.734375 L 2.3125 3.3125 C 3.5 1.394531 4.394531 -0.101562 5 -1.1875 L 5.25 -1.59375 L 4.46875 -3.125 C 3.800781 -4.414062 3.101562 -5.773438 2.375 -7.203125 C 1.46875 -9.035156 0.9375 -10.097656 0.78125 -10.390625 C 0.550781 -10.816406 0.4375 -11.066406 0.4375 -11.140625 C 0.4375 -11.171875 0.726562 -11.304688 1.3125 -11.546875 C 1.957031 -11.773438 2.597656 -12.023438 3.234375 -12.296875 Z M 3.234375 -12.296875 "/></g></g></g><g fill="#3d7fff" fill-opacity="1"><g transform="translate(32.21747, 29.369392)"><g><path d="M 5.65625 -12.109375 C 6.007812 -12.179688 6.5 -12.21875 7.125 -12.21875 C 7.25 -12.21875 7.550781 -12.210938 8.03125 -12.203125 C 8.519531 -12.191406 8.988281 -12.113281 9.4375 -11.96875 C 12.332031 -11.125 13.78125 -9.117188 13.78125 -5.953125 C 13.78125 -3.992188 13.171875 -2.378906 11.953125 -1.109375 C 11.191406 -0.296875 10.34375 0.222656 9.40625 0.453125 C 8.476562 0.691406 7.679688 0.8125 7.015625 0.8125 C 6.441406 0.8125 5.710938 0.710938 4.828125 0.515625 C 3.941406 0.316406 3.09375 -0.175781 2.28125 -0.96875 C 1.675781 -1.582031 1.242188 -2.265625 0.984375 -3.015625 C 0.722656 -3.765625 0.59375 -4.679688 0.59375 -5.765625 C 0.59375 -6.796875 0.710938 -7.660156 0.953125 -8.359375 C 1.191406 -9.066406 1.597656 -9.707031 2.171875 -10.28125 C 2.628906 -10.757812 3.113281 -11.132812 3.625 -11.40625 C 4.144531 -11.675781 4.820312 -11.910156 5.65625 -12.109375 Z M 8.46875 -7.96875 C 8.238281 -8.144531 7.988281 -8.25 7.71875 -8.28125 C 7.445312 -8.320312 7.242188 -8.34375 7.109375 -8.34375 C 6.867188 -8.34375 6.644531 -8.304688 6.4375 -8.234375 C 6.175781 -8.179688 5.914062 -8.023438 5.65625 -7.765625 C 5.40625 -7.503906 5.222656 -7.238281 5.109375 -6.96875 C 4.984375 -6.695312 4.914062 -6.410156 4.90625 -6.109375 C 4.894531 -5.804688 4.890625 -5.609375 4.890625 -5.515625 C 4.890625 -5.117188 4.925781 -4.796875 5 -4.546875 C 5.21875 -3.953125 5.535156 -3.550781 5.953125 -3.34375 C 6.378906 -3.144531 6.765625 -3.046875 7.109375 -3.046875 C 7.316406 -3.046875 7.546875 -3.085938 7.796875 -3.171875 C 8.929688 -3.546875 9.5 -4.398438 9.5 -5.734375 C 9.5 -6.804688 9.15625 -7.550781 8.46875 -7.96875 Z M 8.46875 -7.96875 "/></g></g></g><g fill="#3d7fff" fill-opacity="1"><g transform="translate(46.581757, 29.369392)"><g><path d="M 1.1875 -12.1875 L 5.671875 -12.1875 L 5.703125 -8.5 C 5.703125 -7.007812 5.71875 -5.988281 5.75 -5.4375 C 5.789062 -4.894531 5.851562 -4.507812 5.9375 -4.28125 C 6.03125 -4.0625 6.203125 -3.875 6.453125 -3.71875 C 6.671875 -3.570312 6.953125 -3.5 7.296875 -3.5 C 7.492188 -3.5 7.804688 -3.535156 8.234375 -3.609375 C 8.660156 -3.691406 9.054688 -3.914062 9.421875 -4.28125 C 9.546875 -4.40625 9.617188 -4.640625 9.640625 -4.984375 C 9.671875 -5.335938 9.6875 -6.46875 9.6875 -8.375 L 9.6875 -12.1875 L 14.171875 -12.1875 L 14.125 -11.03125 C 14.070312 -10.007812 13.945312 -6.742188 13.75 -1.234375 C 13.695312 0.160156 13.625 0.867188 13.53125 0.890625 C 13.445312 0.910156 13.304688 0.921875 13.109375 0.921875 C 12.921875 0.921875 12.613281 0.910156 12.1875 0.890625 C 11.769531 0.867188 11.238281 0.835938 10.59375 0.796875 C 9.945312 0.765625 9.625 0.738281 9.625 0.71875 C 9.664062 0.65625 9.6875 0.476562 9.6875 0.1875 L 9.6875 -0.328125 L 9.015625 0.03125 C 8.273438 0.40625 7.582031 0.617188 6.9375 0.671875 C 6.289062 0.722656 5.863281 0.75 5.65625 0.75 C 4.9375 0.75 4.351562 0.648438 3.90625 0.453125 C 2.664062 -0.117188 1.898438 -1.226562 1.609375 -2.875 C 1.523438 -3.269531 1.4375 -4.460938 1.34375 -6.453125 C 1.25 -8.441406 1.195312 -10.238281 1.1875 -11.84375 Z M 1.1875 -12.1875 "/></g></g></g></g></g></svg>